<?xml version="1.0" standalone="no"?>
<!DOCTYPE svg PUBLIC "-//W3C//DTD SVG 20010904//EN"
 "http://www.w3.org/TR/2001/REC-SVG-20010904/DTD/svg10.dtd">
<svg version="1.0" xmlns="http://www.w3.org/2000/svg"
 width="260.000000pt" height="260.000000pt" viewBox="0 0 260.000000 260.000000"
 preserveAspectRatio="xMidYMid meet">
<metadata>
Created by potrace 1.11, written by Peter Selinger 2001-2013
</metadata>
<g transform="translate(0.000000,260.000000) scale(0.100000,-0.100000)"
fill="#000000" stroke="none">
<path d="M0 1300 l0 -1300 1300 0 1300 0 0 1300 0 1300 -1300 0 -1300 0 0
-1300z m1272 1183 c18 -21 31 -70 22 -84 -4 -7 -12 -5 -23 5 -15 14 -28 8
-139 -65 l-122 -80 0 -56 c0 -63 -32 -199 -61 -255 -11 -22 -36 -64 -55 -94
-19 -30 -47 -85 -62 -122 -25 -64 -27 -76 -28 -262 -1 -146 -6 -210 -18 -253
l-16 -59 62 -67 c35 -38 81 -101 103 -141 57 -104 142 -186 253 -243 64 -33
104 -62 137 -99 63 -71 104 -131 111 -165 4 -20 17 -33 43 -45 23 -11 46 -33
59 -57 28 -49 29 -68 1 -21 -24 40 -57 69 -79 70 -12 0 -15 -8 -12 -36 5 -40
-27 -84 -60 -84 -10 0 -40 -11 -67 -26 -69 -35 -167 -50 -234 -35 -127 28
-303 138 -424 264 -88 92 -138 163 -191 275 -29 61 -35 85 -35 141 0 37 8 90
17 119 l18 53 -29 22 c-53 41 -85 82 -115 144 -90 189 -50 560 88 808 69 124
126 193 199 240 110 71 239 93 322 56 l42 -19 123 70 c145 83 129 71 131 97 2
26 19 27 39 4z m328 -2298 c0 -5 -5 -3 -10 5 -5 8 -10 20 -10 25 0 6 5 3 10
-5 5 -8 10 -19 10 -25z m90 -94 c18 -7 20 -10 7 -10 -9 -1 -32 14 -50 32 -18
17 -21 22 -7 10 14 -12 36 -26 50 -32z m73 -18 c-7 -2 -21 -2 -30 0 -10 3 -4
5 12 5 17 0 24 -2 18 -5z"/>
<path d="M773 2173 c-7 -3 -13 -11 -13 -19 0 -18 -14 -18 -29 0 -7 8 -21 12
-32 9 -15 -4 -17 -8 -8 -19 6 -8 19 -14 28 -15 12 0 11 -2 -4 -9 -28 -12 -37
-12 -30 0 3 6 2 10 -4 10 -9 0 -27 -38 -23 -52 1 -4 -7 -10 -18 -13 -35 -11
-22 -24 48 -44 93 -27 128 -35 120 -26 -4 4 2 15 13 24 19 15 19 17 4 36 -13
15 -15 16 -11 3 2 -9 -1 -18 -7 -21 -9 -3 -12 7 -12 32 1 22 -5 41 -14 48 -10
8 -11 12 -4 13 6 0 15 -4 18 -10 3 -5 16 -10 28 -10 21 0 21 1 -5 23 -14 12
-28 27 -30 33 -1 6 -9 9 -15 7z"/>
<path d="M636 2124 c-4 -9 -4 -19 -1 -22 2 -3 7 3 11 12 4 9 4 19 1 22 -2 3
-7 -3 -11 -12z"/>
<path d="M605 2069 c-4 -6 -5 -12 -2 -15 2 -3 7 2 10 11 7 17 1 20 -8 4z"/>
<path d="M576 1988 c-9 -12 -16 -27 -16 -32 0 -6 -12 -21 -27 -34 -16 -13 -23
-21 -16 -18 17 9 25 -11 14 -33 -9 -16 -1 -28 55 -80 73 -69 94 -76 94 -31 0
19 5 30 14 30 7 0 19 7 26 15 10 12 10 15 -3 15 -9 0 -23 10 -31 22 -14 20
-14 23 -1 31 8 4 19 6 23 3 5 -3 8 5 8 17 -1 15 9 27 31 37 18 8 35 21 38 28
2 7 0 10 -5 7 -6 -3 -10 -2 -10 2 0 12 -108 43 -147 43 -22 0 -37 -7 -47 -22z
m16 -16 c3 -11 0 -19 -8 -19 -16 0 -16 0 -8 21 8 21 11 20 16 -2z"/>
<path d="M500 1869 c0 -5 5 -7 10 -4 6 3 10 8 10 11 0 2 -4 4 -10 4 -5 0 -10
-5 -10 -11z"/>
<path d="M473 1824 c-3 -8 -1 -20 6 -27 8 -8 11 -8 11 1 0 7 4 12 9 12 5 0 4
-11 -2 -24 -7 -14 -14 -21 -17 -18 -3 4 -11 8 -18 10 -10 2 -10 -2 -1 -20 7
-13 16 -26 21 -29 6 -4 -1 -9 -14 -12 -14 -4 -30 -18 -36 -32 -16 -35 -16 -35
16 -31 27 3 28 1 18 -20 -10 -22 -11 -23 -14 -4 -5 27 -22 15 -22 -15 0 -31
10 -56 20 -50 4 3 7 -10 6 -28 -1 -21 -7 -33 -18 -35 -15 -3 -15 -7 -1 -48 8
-24 19 -44 24 -44 4 0 5 8 2 17 -5 12 -2 15 8 11 8 -3 34 7 57 23 23 16 56 36
73 44 23 12 30 22 26 36 -3 10 -1 19 4 19 4 0 6 7 3 15 -4 10 0 15 14 15 23 0
37 15 23 25 -6 3 -7 13 -4 22 4 10 2 14 -5 9 -7 -4 -8 2 -2 24 9 31 -1 47 -22
34 -6 -4 -8 -3 -4 4 5 9 -132 132 -149 132 -3 0 -8 -7 -12 -16z m-13 -355 c0
-5 -4 -9 -10 -9 -5 0 -10 7 -10 16 0 8 5 12 10 9 6 -3 10 -10 10 -16z"/>
<path d="M445 1740 c-3 -5 -1 -10 4 -10 6 0 11 5 11 10 0 6 -2 10 -4 10 -3 0
-8 -4 -11 -10z"/>
<path d="M435 1520 c3 -5 8 -10 11 -10 2 0 4 5 4 10 0 6 -5 10 -11 10 -5 0 -7
-4 -4 -10z"/>
<path d="M623 1494 c-18 -8 -54 -30 -80 -50 -98 -73 -108 -98 -60 -150 15 -16
27 -34 27 -40 0 -15 55 -16 115 -2 62 15 61 14 43 35 -23 28 -42 104 -28 113
7 4 10 23 9 44 -2 23 1 40 10 45 24 15 -3 18 -36 5z"/>
<path d="M416 1433 c-6 -14 -5 -15 5 -6 7 7 10 15 7 18 -3 3 -9 -2 -12 -12z"/>
<path d="M553 1195 c-8 -24 7 -32 21 -12 15 19 62 25 50 5 -4 -7 -3 -8 4 -4
24 14 11 26 -28 26 -27 0 -43 -5 -47 -15z"/>
<path d="M510 1186 c7 -7 14 -6 21 1 9 9 7 12 -9 10 -14 -1 -18 -5 -12 -11z"/>
<path d="M616 1004 c-24 -23 -20 -44 9 -44 14 0 25 5 25 10 0 6 5 10 11 10 11
0 39 24 39 34 0 12 -44 -5 -61 -25 -11 -12 -22 -19 -25 -16 -4 3 1 13 10 22 9
9 16 18 16 21 0 8 -9 4 -24 -12z"/>
<path d="M688 976 c-17 -17 -57 -31 -80 -27 -25 3 -31 -17 -10 -30 24 -15 17
-49 -9 -49 -24 0 -25 27 -1 33 13 4 11 5 -5 6 -35 2 -26 -52 17 -97 11 -12 18
-27 15 -32 -3 -6 0 -10 9 -10 8 0 21 -2 28 -5 10 -4 29 22 61 78 50 90 56 111
31 121 -23 9 -27 8 -20 -9 3 -8 1 -15 -5 -15 -7 0 -9 10 -5 25 7 27 -5 33 -26
11z m-80 -128 c-2 -7 3 -12 10 -10 6 1 12 -5 12 -15 0 -14 -2 -14 -20 2 -22
20 -26 35 -10 35 6 0 9 -6 8 -12z"/>
<path d="M804 914 c-1 -13 1 -24 5 -24 9 0 12 38 3 44 -4 2 -8 -7 -8 -20z"/>
<path d="M775 897 c-4 -15 -11 -25 -15 -22 -4 3 -29 -36 -55 -86 -36 -71 -44
-93 -34 -100 7 -4 17 -5 21 -3 4 3 5 -1 3 -8 -3 -7 8 -29 23 -48 l29 -34 63
49 c116 93 116 92 95 115 -10 11 -22 17 -26 14 -14 -8 -10 -24 6 -24 8 0 15
-4 15 -10 0 -12 -10 -13 -29 -1 -8 6 -11 16 -6 31 6 19 4 22 -10 16 -13 -5
-16 -2 -11 10 5 14 4 15 -9 4 -20 -16 -19 -6 1 14 14 15 14 18 -5 34 -11 9
-27 30 -35 46 l-15 29 -6 -26z m59 -168 c-3 -5 -10 -7 -15 -3 -5 3 -7 10 -3
15 3 5 10 7 15 3 5 -3 7 -10 3 -15z m-114 -69 c0 -5 -2 -10 -4 -10 -3 0 -8 5
-11 10 -3 6 -1 10 4 10 6 0 11 -4 11 -10z m25 -20 c3 -5 1 -10 -4 -10 -6 0
-11 5 -11 10 0 6 2 10 4 10 3 0 8 -4 11 -10z"/>
<path d="M865 665 c-97 -79 -95 -78 -84 -92 6 -7 15 -11 19 -8 4 2 13 -6 20
-20 7 -13 18 -21 25 -19 7 3 12 -1 12 -8 -1 -7 3 -13 8 -13 6 0 9 6 8 14 -1 8
8 2 20 -13 12 -15 33 -32 47 -39 17 -9 24 -20 22 -34 -2 -12 2 -25 9 -29 8 -5
9 -3 4 6 -6 9 -1 10 16 5 19 -5 21 -4 9 4 -8 6 -10 11 -5 11 6 0 3 4 -5 10 -8
5 -12 12 -8 15 9 9 58 -66 51 -78 -3 -5 0 -7 8 -5 8 3 13 12 11 22 -2 9 2 16
8 16 6 0 8 -4 5 -10 -3 -5 1 -10 10 -10 15 0 16 11 9 103 -3 56 -11 104 -15
105 -5 2 -6 9 -3 14 5 8 -3 9 -22 5 -31 -6 -74 16 -55 28 20 12 11 25 -18 25
-16 0 -32 -6 -34 -12 -4 -10 -6 -9 -6 1 -1 8 6 19 16 26 11 8 13 14 5 19 -7 4
-12 2 -12 -3 0 -6 -5 -11 -11 -11 -5 0 -7 5 -4 10 12 19 -5 9 -60 -35z"/>
<path d="M1120 579 c0 -6 -4 -7 -10 -4 -14 9 -12 -90 3 -150 10 -38 18 -50 33
-50 12 0 20 8 22 24 3 17 0 21 -10 15 -10 -6 -10 -4 1 9 7 9 19 17 25 17 6 0
17 14 23 30 11 29 10 30 -9 24 -17 -5 -19 -3 -13 15 5 18 2 21 -22 21 -15 0
-35 5 -43 10 -13 8 -13 10 1 10 22 0 32 27 13 34 -8 3 -14 1 -14 -5z"/>
<path d="M893 465 c0 -8 4 -12 9 -9 4 3 8 9 8 15 0 5 -4 9 -8 9 -5 0 -9 -7 -9
-15z"/>
<path d="M1005 390 c3 -5 8 -10 11 -10 2 0 4 5 4 10 0 6 -5 10 -11 10 -5 0 -7
-4 -4 -10z"/>
</g>
</svg>
